<mxfile host="Electron" modified="2024-04-01T23:13:18.791Z" agent="Mozilla/5.0 (Windows NT 10.0; Win64; x64) AppleWebKit/537.36 (KHTML, like Gecko) draw.io/24.1.0 Chrome/120.0.6099.109 Electron/28.1.0 Safari/537.36" etag="nZqpTj9ads8KkK1mRiEv" version="24.1.0" type="device">
  <diagram name="Página-1" id="5-tvqCX8FqzggtvlBkEG">
    <mxGraphModel dx="1420" dy="1999" grid="1" gridSize="10" guides="1" tooltips="1" connect="1" arrows="1" fold="1" page="1" pageScale="1" pageWidth="827" pageHeight="1169" background="#CCE5FF" math="0" shadow="0">
      <root>
        <mxCell id="0" />
        <mxCell id="1" parent="0" />
        <mxCell id="0ue76YWfy1uJR6ZiZGBp-1" value="&lt;p style=&quot;line-height: 78%;&quot;&gt;&lt;b style=&quot;font-size: 15px;&quot;&gt;&lt;font style=&quot;font-size: 15px;&quot; color=&quot;#000000&quot; face=&quot;Comic Sans MS&quot;&gt;13&lt;br&gt;&lt;br&gt;Hacer un programa para un cajero automático para ingresar un importe a retirar y convertir el mismo en la cantidad de billetes de $1.000, $500, $200 y $100 a entregar.&lt;br&gt;&lt;br&gt;Ejemplo A: Si el importe a retirar es $2500 se mostrará por pantalla que se deberán entregar 2 billetes de $1.000, 1 billete de $500,  0 billetes de $200 y 0 billetes de $100.&lt;br&gt;&lt;br&gt;Ejemplo B: Si el importe a retirar es $3400 se mostrará por pantalla que se deberán entregar 3 billetes de $1.000, 2 billetes de $200, 0 billetes de $500 y 0 billetes de $100.&lt;br&gt;&lt;br&gt;Ejemplo C: Si el importe a retirar es $300 se mostrará por pantalla que se deberán entregar 1 billete de $200, 1 billete de $100, 0 billetes de $1.000 y 0 billetes de $500.&lt;br&gt;&lt;br&gt;Recordatorio. Considerar en todos los casos que el importe a retirar es en todos los casos múltiplo de $100 ya que el cajero no cuenta con billetes de $50, $20 o $10.&lt;/font&gt;&lt;/b&gt;&lt;/p&gt;" style="text;whiteSpace=wrap;html=1;fontFamily=Architects Daughter;fontSource=https%3A%2F%2Ffonts.googleapis.com%2Fcss%3Ffamily%3DArchitects%2BDaughter;" vertex="1" parent="1">
          <mxGeometry x="150" y="-10" width="690" height="220" as="geometry" />
        </mxCell>
        <mxCell id="0ue76YWfy1uJR6ZiZGBp-21" value="" style="group;aspect=fixed;" vertex="1" connectable="0" parent="1">
          <mxGeometry x="335" y="240" width="230" height="480" as="geometry" />
        </mxCell>
        <mxCell id="0ue76YWfy1uJR6ZiZGBp-9" value="" style="group;aspect=fixed;" vertex="1" connectable="0" parent="0ue76YWfy1uJR6ZiZGBp-21">
          <mxGeometry x="95" width="40" height="40" as="geometry" />
        </mxCell>
        <mxCell id="0ue76YWfy1uJR6ZiZGBp-2" value="" style="strokeWidth=2;html=1;shape=mxgraph.flowchart.start_2;whiteSpace=wrap;rounded=0;labelBackgroundColor=none;strokeColor=#000000;align=center;verticalAlign=middle;fontFamily=Helvetica;fontSize=12;fontColor=default;fillColor=#d5e8d4;aspect=fixed;" vertex="1" parent="0ue76YWfy1uJR6ZiZGBp-9">
          <mxGeometry width="40" height="40" as="geometry" />
        </mxCell>
        <mxCell id="0ue76YWfy1uJR6ZiZGBp-7" value="&lt;b&gt;&lt;font color=&quot;#000000&quot; style=&quot;font-size: 17px;&quot; face=&quot;Comic Sans MS&quot;&gt;I&lt;/font&gt;&lt;/b&gt;" style="text;strokeColor=none;align=center;fillColor=none;html=1;verticalAlign=middle;whiteSpace=wrap;rounded=0;fontFamily=Architects Daughter;fontSource=https%3A%2F%2Ffonts.googleapis.com%2Fcss%3Ffamily%3DArchitects%2BDaughter;aspect=fixed;" vertex="1" parent="0ue76YWfy1uJR6ZiZGBp-9">
          <mxGeometry x="5" y="5" width="30" height="30" as="geometry" />
        </mxCell>
        <mxCell id="0ue76YWfy1uJR6ZiZGBp-10" value="" style="group;aspect=fixed;" vertex="1" connectable="0" parent="0ue76YWfy1uJR6ZiZGBp-21">
          <mxGeometry x="95" y="440" width="40" height="40" as="geometry" />
        </mxCell>
        <mxCell id="0ue76YWfy1uJR6ZiZGBp-3" value="" style="strokeWidth=2;html=1;shape=mxgraph.flowchart.start_2;whiteSpace=wrap;rounded=0;labelBackgroundColor=none;strokeColor=#000000;align=center;verticalAlign=middle;fontFamily=Helvetica;fontSize=12;fontColor=default;fillColor=#d5e8d4;aspect=fixed;" vertex="1" parent="0ue76YWfy1uJR6ZiZGBp-10">
          <mxGeometry width="40" height="40" as="geometry" />
        </mxCell>
        <mxCell id="0ue76YWfy1uJR6ZiZGBp-8" value="&lt;b&gt;&lt;font color=&quot;#000000&quot; style=&quot;font-size: 17px;&quot; face=&quot;Comic Sans MS&quot;&gt;F&lt;/font&gt;&lt;/b&gt;" style="text;strokeColor=none;align=center;fillColor=none;html=1;verticalAlign=middle;whiteSpace=wrap;rounded=0;fontFamily=Architects Daughter;fontSource=https://fonts.googleapis.com/css?family=Architects+Daughter;aspect=fixed;" vertex="1" parent="0ue76YWfy1uJR6ZiZGBp-10">
          <mxGeometry x="5" y="5" width="30" height="30" as="geometry" />
        </mxCell>
        <mxCell id="0ue76YWfy1uJR6ZiZGBp-12" value="" style="group;aspect=fixed;" vertex="1" connectable="0" parent="0ue76YWfy1uJR6ZiZGBp-21">
          <mxGeometry x="50" y="70" width="130" height="40" as="geometry" />
        </mxCell>
        <mxCell id="0ue76YWfy1uJR6ZiZGBp-4" value="" style="shape=trapezoid;perimeter=trapezoidPerimeter;whiteSpace=wrap;html=1;fixedSize=1;rounded=0;labelBackgroundColor=none;strokeColor=#121211;strokeWidth=2;align=center;verticalAlign=middle;fontFamily=Helvetica;fontSize=12;fontColor=default;fillColor=#d5e8d4;direction=west;container=0;aspect=fixed;" vertex="1" parent="0ue76YWfy1uJR6ZiZGBp-12">
          <mxGeometry width="130" height="40" as="geometry">
            <mxRectangle x="-1020" y="-650" width="50" height="40" as="alternateBounds" />
          </mxGeometry>
        </mxCell>
        <mxCell id="0ue76YWfy1uJR6ZiZGBp-11" value="&lt;font size=&quot;1&quot; face=&quot;Comic Sans MS&quot; color=&quot;#000000&quot;&gt;&lt;b style=&quot;font-size: 16px;&quot;&gt;ingreso&lt;/b&gt;&lt;/font&gt;" style="text;strokeColor=none;align=center;fillColor=none;html=1;verticalAlign=middle;whiteSpace=wrap;rounded=0;fontFamily=Architects Daughter;fontSource=https%3A%2F%2Ffonts.googleapis.com%2Fcss%3Ffamily%3DArchitects%2BDaughter;aspect=fixed;container=0;" vertex="1" parent="0ue76YWfy1uJR6ZiZGBp-12">
          <mxGeometry x="15" y="5" width="100" height="30" as="geometry" />
        </mxCell>
        <mxCell id="0ue76YWfy1uJR6ZiZGBp-14" value="" style="group;aspect=fixed;" vertex="1" connectable="0" parent="0ue76YWfy1uJR6ZiZGBp-21">
          <mxGeometry y="150" width="230" height="170" as="geometry" />
        </mxCell>
        <mxCell id="0ue76YWfy1uJR6ZiZGBp-5" value="" style="rounded=0;whiteSpace=wrap;html=1;labelBackgroundColor=none;strokeColor=#0f100e;strokeWidth=2;align=center;verticalAlign=middle;fontFamily=Helvetica;fontSize=12;fontColor=default;fillColor=#d5e8d4;aspect=fixed;" vertex="1" parent="0ue76YWfy1uJR6ZiZGBp-14">
          <mxGeometry width="230" height="170" as="geometry" />
        </mxCell>
        <mxCell id="0ue76YWfy1uJR6ZiZGBp-13" value="&lt;b&gt;&lt;font color=&quot;#000000&quot; style=&quot;font-size: 13px;&quot; face=&quot;Comic Sans MS&quot;&gt;billete1000 = ingreso / 1000&lt;/font&gt;&lt;/b&gt;&lt;div&gt;&lt;b&gt;&lt;font color=&quot;#000000&quot; style=&quot;font-size: 13px;&quot; face=&quot;Comic Sans MS&quot;&gt;resto1000 = ingreso % 1000&lt;/font&gt;&lt;/b&gt;&lt;/div&gt;&lt;div&gt;&lt;b&gt;&lt;font color=&quot;#000000&quot; style=&quot;font-size: 13px;&quot; face=&quot;Comic Sans MS&quot;&gt;billete500 = resto1000 / 500&lt;/font&gt;&lt;/b&gt;&lt;/div&gt;&lt;div&gt;&lt;b&gt;&lt;font color=&quot;#000000&quot; style=&quot;font-size: 13px;&quot; face=&quot;Comic Sans MS&quot;&gt;resto500 = resto1000 % 500&lt;/font&gt;&lt;/b&gt;&lt;/div&gt;&lt;div&gt;&lt;b&gt;&lt;font color=&quot;#000000&quot; style=&quot;font-size: 13px;&quot; face=&quot;Comic Sans MS&quot;&gt;billete200 = resto500 / 200&lt;/font&gt;&lt;/b&gt;&lt;/div&gt;&lt;div&gt;&lt;b&gt;&lt;font color=&quot;#000000&quot; style=&quot;font-size: 13px;&quot; face=&quot;Comic Sans MS&quot;&gt;resto200 = resto500 % 200&lt;/font&gt;&lt;/b&gt;&lt;/div&gt;&lt;div&gt;&lt;b&gt;&lt;font color=&quot;#000000&quot; style=&quot;font-size: 13px;&quot; face=&quot;Comic Sans MS&quot;&gt;billete100 = resto200 / 100&lt;/font&gt;&lt;/b&gt;&lt;/div&gt;&lt;div&gt;&lt;font face=&quot;Comic Sans MS&quot; color=&quot;#000000&quot;&gt;&lt;span style=&quot;font-size: 13px;&quot;&gt;&lt;b&gt;resto100 = resto200 % 100&lt;/b&gt;&lt;/span&gt;&lt;/font&gt;&lt;/div&gt;" style="text;strokeColor=none;align=left;fillColor=none;html=1;verticalAlign=middle;whiteSpace=wrap;rounded=0;fontFamily=Architects Daughter;fontSource=https%3A%2F%2Ffonts.googleapis.com%2Fcss%3Ffamily%3DArchitects%2BDaughter;aspect=fixed;" vertex="1" parent="0ue76YWfy1uJR6ZiZGBp-14">
          <mxGeometry x="15" y="15" width="215" height="140" as="geometry" />
        </mxCell>
        <mxCell id="0ue76YWfy1uJR6ZiZGBp-16" value="" style="group;aspect=fixed;" vertex="1" connectable="0" parent="0ue76YWfy1uJR6ZiZGBp-21">
          <mxGeometry x="3.75" y="360" width="222.5" height="50" as="geometry" />
        </mxCell>
        <mxCell id="0ue76YWfy1uJR6ZiZGBp-6" value="" style="shape=trapezoid;perimeter=trapezoidPerimeter;whiteSpace=wrap;html=1;fixedSize=1;rounded=0;labelBackgroundColor=none;strokeColor=#0F140C;strokeWidth=2;align=center;verticalAlign=middle;fontFamily=Helvetica;fontSize=12;fontColor=default;fillColor=#d5e8d4;aspect=fixed;" vertex="1" parent="0ue76YWfy1uJR6ZiZGBp-16">
          <mxGeometry width="222.5" height="50" as="geometry" />
        </mxCell>
        <mxCell id="0ue76YWfy1uJR6ZiZGBp-15" value="&lt;b&gt;&lt;font color=&quot;#000000&quot; style=&quot;font-size: 14px;&quot; face=&quot;Comic Sans MS&quot;&gt;billete1000, billete500,&lt;/font&gt;&lt;/b&gt;&lt;div&gt;&lt;b&gt;&lt;font color=&quot;#000000&quot; style=&quot;font-size: 14px;&quot; face=&quot;Comic Sans MS&quot;&gt;billete200, billete100&lt;/font&gt;&lt;/b&gt;&lt;/div&gt;" style="text;strokeColor=none;align=center;fillColor=none;html=1;verticalAlign=middle;whiteSpace=wrap;rounded=0;fontFamily=Architects Daughter;fontSource=https%3A%2F%2Ffonts.googleapis.com%2Fcss%3Ffamily%3DArchitects%2BDaughter;aspect=fixed;" vertex="1" parent="0ue76YWfy1uJR6ZiZGBp-16">
          <mxGeometry x="16.25" width="190" height="50" as="geometry" />
        </mxCell>
        <mxCell id="0ue76YWfy1uJR6ZiZGBp-17" value="" style="line;strokeWidth=2;direction=south;html=1;hachureGap=4;fontFamily=Architects Daughter;fontSource=https://fonts.googleapis.com/css?family=Architects+Daughter;strokeColor=#000000;aspect=fixed;" vertex="1" parent="0ue76YWfy1uJR6ZiZGBp-21">
          <mxGeometry x="110" y="40" width="10" height="30" as="geometry" />
        </mxCell>
        <mxCell id="0ue76YWfy1uJR6ZiZGBp-18" value="" style="line;strokeWidth=2;direction=south;html=1;hachureGap=4;fontFamily=Architects Daughter;fontSource=https://fonts.googleapis.com/css?family=Architects+Daughter;strokeColor=#000000;aspect=fixed;" vertex="1" parent="0ue76YWfy1uJR6ZiZGBp-21">
          <mxGeometry x="110" y="320" width="10" height="40" as="geometry" />
        </mxCell>
        <mxCell id="0ue76YWfy1uJR6ZiZGBp-19" value="" style="line;strokeWidth=2;direction=south;html=1;hachureGap=4;fontFamily=Architects Daughter;fontSource=https://fonts.googleapis.com/css?family=Architects+Daughter;strokeColor=#000000;aspect=fixed;" vertex="1" parent="0ue76YWfy1uJR6ZiZGBp-21">
          <mxGeometry x="110" y="110" width="10" height="40" as="geometry" />
        </mxCell>
        <mxCell id="0ue76YWfy1uJR6ZiZGBp-20" value="" style="line;strokeWidth=2;direction=south;html=1;hachureGap=4;fontFamily=Architects Daughter;fontSource=https://fonts.googleapis.com/css?family=Architects+Daughter;strokeColor=#000000;aspect=fixed;" vertex="1" parent="0ue76YWfy1uJR6ZiZGBp-21">
          <mxGeometry x="110" y="410" width="10" height="30" as="geometry" />
        </mxCell>
      </root>
    </mxGraphModel>
  </diagram>
</mxfile>
